{"title":"Halloween H20 20 Years Later 1998 720p Brrip x264 SSloco","uid":11982510,"size":601802340,"categoryP":"video","categoryS":"hd___movies","magnet":"?xt=urn:btih:0a39635fb84ad05a020502529184403cd282e9f3&amp;dn=Halloween+H20+20+Years+Later+1998+720p+Brrip+x264+SSloco&amp;tr=udp%3A%2F%2Ftracker.openbittorrent.com%3A80&amp;tr=udp%3A%2F%2Fopen.demonii.com%3A1337&amp;tr=udp%3A%2F%2Ftracker.coppersurfer.tk%3A6969&amp;tr=udp%3A%2F%2Fexodus.desync.com%3A6969","seeders":0,"leechers":1,"uploader":"myhoes14","files":1,"time":1433254783,"description":"Source:Halloween H20 20 Years Later 1998 720p Bluray x264 HDCHINA \n\nMedia Info\n\n\nFormat : MPEG-4\nFormat profile : Base Media\nCodec ID : isom\nFile size : 574 MiB\nDuration : 1h 26mn\nOverall bit rate mode : Variable\nOverall bit rate : 931 Kbps\nEncoded date : UTC 2015-05-16 05:14:36\nTagged date : UTC 2015-05-16 05:14:36\n\nVideo\nID : 1\nFormat : AVC\nFormat/Info : Advanced Video Codec\nFormat profile : &lt;a class=&quot;__cf_email__&quot; href=&quot;/cdn-cgi/l/email-protection&quot; data-cfemail=&quot;feb6979996beb2cad0cf&quot;&gt;[email&amp;#160;protected]&lt;/a&gt;&lt;script data-cfhash='f9e31' type=&quot;text/javascript&quot;&gt;\n/* &lt;![CDATA[ */!function(){try{var t=&quot;currentScript&quot;in document?document.currentScript:function(){for(var t=document.getElementsByTagName(&quot;script&quot;),e=t.length;e--;)if(t[e].getAttribute(&quot;data-cfhash&quot;))return t[e]}();if(t&amp;&amp;t.previousSibling){var e,r,n,i,c=t.previousSibling,a=c.getAttribute(&quot;data-cfemail&quot;);if(a){for(e=&quot;&quot;,r=parseInt(a.substr(0,2),16),n=2;a.length-n;n+=2)i=parseInt(a.substr(n,2),16)^r,e+=String.fromCharCode(i);e=document.createTextNode(e),c.parentNode.replaceChild(e,c)}t.parentNode.removeChild(t);}}catch(u){}}()/* ]]&gt; */&lt;/script&gt;\nFormat settings, CABAC : Yes\nFormat settings, ReFrames : 12 frames\nCodec ID : avc1\nCodec ID/Info : Advanced Video Coding\nDuration : 1h 26mn\nBit rate : 740 Kbps\nMaximum bit rate : 4 322 Kbps\nWidth : 1 280 pixels\nHeight : 544 pixels\nDisplay aspect ratio : 2.35:1\nFrame rate mode : Constant\nFrame rate : 24.000 fps\nColor space : YUV\nChroma subsampling : 4:2:0\nBit depth : 8 bits\nScan type : Progressive\nBits/(Pixel*Frame) : 0.044\nStream size : 456 MiB (79%)\nWriting library : x264 core 146 r2538 121396c\nEncoding settings : cabac=1 / ref=12 / deblock=1:-1:-1 / analyse=0x3:0x133 / me=umh / subme=10 / psy=1 / psy_rd=1.00:0.15 / mixed_ref=1 / me_range=64 / chroma_me=1 / trellis=2 / 8x8dct=1 / cqm=0 / deadzone=21,11 / fast_pskip=1 / chroma_qp_offset=-3 / threads=6 / lookahead_threads=1 / sliced_threads=0 / nr=0 / decimate=1 / interlaced=0 / bluray_compat=0 / constrained_intra=0 / bframes=12 / b_pyramid=2 / b_adapt=2 / b_bias=0 / direct=3 / weightb=1 / open_gop=0 / weightp=2 / keyint=240 / keyint_min=24 / scenecut=40 / intra_refresh=0 / rc_lookahead=235 / rc=2pass / mbtree=1 / bitrate=740 / ratetol=1.0 / qcomp=0.60 / qpmin=0 / qpmax=69 / qpstep=4 / cplxblur=20.0 / qblur=0.5 / vbv_maxrate=62500 / vbv_bufsize=78125 / nal_hrd=none / filler=0 / ip_ratio=1.40 / aq=1:1.00\nEncoded date : UTC 2015-05-16 05:14:36\nTagged date : UTC 2015-05-16 05:15:17\nColor primaries : BT.709\nTransfer characteristics : BT.709\nMatrix coefficients : BT.709\nColor range : Limited\n\nAudio\nID : 2\nFormat : AAC\nFormat/Info : Advanced Audio Codec\nFormat profile : HE-AAC / LC\nCodec ID : 40\nDuration : 1h 26mn\nBit rate mode : Variable\nBit rate : 192 Kbps\nMaximum bit rate : 261 Kbps\nChannel(s) : 6 channels\nChannel positions : Front: L C R, Side: L R, LFE\nSampling rate : 48.0 KHz / 24.0 KHz\nCompression mode : Lossy\nStream size : 116 MiB (20%)\nLanguage : English\nEncoded date : UTC 2015-05-16 05:01:51\nTagged date : UTC 2015-05-16 05:15:17\n\nMenu\n00:00:00.000 : Chapter.01\n00:05:30.708 : Chapter.02\n00:09:30.250 : Chapter.03\n00:15:28.666 : Chapter.04\n00:22:21.875 : Chapter.05\n00:27:07.208 : Chapter.06\n00:34:43.583 : Chapter.07\n00:40:11.208 : Chapter.08\n00:48:07.666 : Chapter.09\n00:51:25.625 : Chapter.10\n00:56:19.666 : Chapter.11\n01:00:26.666 : Chapter.12\n01:05:04.875 : Chapter.13\n01:10:08.500 : Chapter.14\n01:15:12.541 : Chapter.15","torrent":{"xt":"urn:btih:0a39635fb84ad05a020502529184403cd282e9f3","amp;dn":"Halloween+H20+20+Years+Later+1998+720p+Brrip+x264+SSloco","amp;tr":["udp%3A%2F%2Ftracker.openbittorrent.com%3A80","udp%3A%2F%2Fopen.demonii.com%3A1337","udp%3A%2F%2Ftracker.coppersurfer.tk%3A6969","udp%3A%2F%2Fexodus.desync.com%3A6969"],"infoHash":"0a39635fb84ad05a020502529184403cd282e9f3","infoHashBuffer":{"type":"Buffer","data":[10,57,99,95,184,74,208,90,2,5,2,82,145,132,64,60,210,130,233,243]},"announce":[],"urlList":[]}}